<svg width="12" height="22" viewBox="0 0 12 22" fill="none" xmlns="http://www.w3.org/2000/svg">
<path d="M5.99867 3.5C5.46667 3.49985 4.94419 3.64117 4.4848 3.90948C4.02542 4.17778 3.64564 4.56343 3.3844 5.02687C3.12317 5.49032 2.98987 6.0149 2.99818 6.54684C3.00648 7.07877 3.15609 7.59894 3.43167 8.054C2.74721 8.18625 2.13014 8.55267 1.68642 9.09034C1.2427 9.62801 1 10.3034 1 11.0005C1 11.6976 1.2427 12.373 1.68642 12.9107C2.13014 13.4483 2.74721 13.8147 3.43167 13.947M5.99867 3.5C5.99867 2.83696 6.26206 2.20107 6.7309 1.73223C7.19974 1.26339 7.83563 1 8.49867 1C9.16171 1 9.79759 1.26339 10.2664 1.73223C10.7353 2.20107 10.9987 2.83696 10.9987 3.5V5M5.99867 3.5C5.99867 4.318 6.39167 5.044 6.99867 5.5M3.43167 13.947C3.15635 14.402 3.00694 14.9221 2.99877 15.4539C2.99059 15.9857 3.12394 16.5101 3.38515 16.9734C3.64635 17.4367 4.02603 17.8222 4.48527 18.0904C4.94451 18.3587 5.46682 18.5 5.99867 18.5C5.9988 19.163 6.26232 19.7989 6.73126 20.2676C7.20019 20.7364 7.83613 20.9996 8.49917 20.9995C9.16221 20.9994 9.79804 20.7358 10.2668 20.2669C10.7355 19.798 10.9988 19.162 10.9987 18.499V17M3.43167 13.947C3.79055 13.3529 4.34433 12.9016 4.99867 12.67" stroke="#3B82F5" stroke-width="1.5" stroke-linecap="round" stroke-linejoin="round"/>
</svg>
