<svg width="23" height="22" viewBox="0 0 23 22" fill="none" xmlns="http://www.w3.org/2000/svg">
<path d="M5.99867 3.5C5.46667 3.49985 4.94419 3.64117 4.4848 3.90948C4.02542 4.17778 3.64564 4.56343 3.3844 5.02687C3.12317 5.49032 2.98987 6.0149 2.99818 6.54684C3.00648 7.07877 3.15609 7.59894 3.43167 8.054C2.74721 8.18625 2.13014 8.55267 1.68642 9.09034C1.2427 9.62801 1 10.3034 1 11.0005C1 11.6976 1.2427 12.373 1.68642 12.9107C2.13014 13.4483 2.74721 13.8147 3.43167 13.947M5.99867 3.5C5.99867 2.83696 6.26206 2.20107 6.7309 1.73223C7.19974 1.26339 7.83563 1 8.49867 1C9.16171 1 9.79759 1.26339 10.2664 1.73223C10.7353 2.20107 10.9987 2.83696 10.9987 3.5V5M5.99867 3.5C5.99867 4.318 6.39167 5.044 6.99867 5.5M3.43167 13.947C3.15635 14.402 3.00694 14.9221 2.99877 15.4539C2.99059 15.9857 3.12394 16.5101 3.38515 16.9734C3.64635 17.4367 4.02603 17.8222 4.48527 18.0904C4.94451 18.3587 5.46682 18.5 5.99867 18.5C5.9988 19.163 6.26232 19.7989 6.73126 20.2676C7.20019 20.7364 7.83613 20.9996 8.49917 20.9995C9.16221 20.9994 9.79804 20.7358 10.2668 20.2669C10.7355 19.798 10.9988 19.162 10.9987 18.499V17M3.43167 13.947C3.79055 13.3529 4.34433 12.9016 4.99867 12.67" stroke="#3B82F5" stroke-width="1.5" stroke-linecap="round" stroke-linejoin="round"/>
<path d="M16 8H18C18.943 8 19.414 8 19.707 8.293C20 8.586 20 9.057 20 9.99999V10V12V12C20 12.943 20 13.414 19.707 13.707C19.414 14 18.943 14 18 14H16C15.057 14 14.586 14 14.293 13.707C14 13.414 14 12.943 14 12V12V10V9.99999C14 9.057 14 8.586 14.293 8.293C14.586 8 15.057 8 16 8Z" fill="white"/>
<path d="M15.5 14V16M18.5 14V16M15.5 6V8M18.5 6V8M14 9.5H12M14 12.5H12M22 9.5H20M22 12.5H20M18 8H16C15.057 8 14.586 8 14.293 8.293C14 8.586 14 9.057 14 10V12C14 12.943 14 13.414 14.293 13.707C14.586 14 15.057 14 16 14H18C18.943 14 19.414 14 19.707 13.707C20 13.414 20 12.943 20 12V10C20 9.057 20 8.586 19.707 8.293C19.414 8 18.943 8 18 8Z" stroke="#15A349" stroke-width="1.5" stroke-linecap="round" stroke-linejoin="round"/>
<path d="M14.375 9.62525V13.376H14.625V13.626H14.875V13.876H19.3763V13.626H19.6263V13.376H19.8763V9.62525H14.375ZM16.3755 10.3753H16.1255V10.6253H15.8755V11.1255H15.6255V11.3755H15.375V11.8758H15.625V12.1258H15.875V12.6258H16.125V12.8758H16.375V13.126H15.875V12.876H15.625V12.626H15.375V12.126H15.125V11.8758H14.875V11.3758H15.125V11.1258H15.375V10.6255H15.625V10.3755H15.875V10.1255H16.375L16.3755 10.3753ZM17.6258 11.1255H17.3758V12.1258H17.1258V13.126H16.8758V13.376H16.6255V12.126H16.8755V11.3758H17.1255V10.125H17.3755V9.875H17.6258V11.1255ZM19.3763 11.8758H19.1263V12.1258H18.8763V12.6258H18.626V12.8758H18.376V13.126H17.876V12.876H18.126V12.626H18.376V12.126H18.626V11.8758H18.876V11.3758H18.626V11.1258H18.376V10.6255H18.126V10.3755H17.876V10.1255H18.376V10.3755H18.626V10.6255H18.876V11.1255H19.126V11.3755H19.376L19.3763 11.8758ZM19.6263 8.875V8.625H19.3763V8.375H14.875V8.625H14.625V8.875H14.375V9.375H19.8763V8.875H19.6263ZM15.125 9.125V8.625H15.625V9.125H15.125ZM15.875 9.125V8.625H16.375V9.125H15.875ZM16.6253 9.125V8.625H17.1253V9.125H16.6253Z" fill="#15A349"/>
</svg>
